G04 #@! TF.FileFunction,Copper,L1,Top,Signal*
%FSLAX46Y46*%
G04 Gerber Fmt 4.6, Leading zero omitted, Abs format (unit mm)*
G04 Created by KiCad (PCBNEW 4.0.7) date 12/09/17 19:49:49*
%MOMM*%
%LPD*%
G01*
G04 APERTURE LIST*
%ADD10C,0.100000*%
%ADD11R,1.600000X1.600000*%
%ADD12C,1.600000*%
%ADD13R,1.500000X1.300000*%
%ADD14C,2.000000*%
%ADD15C,1.524000*%
%ADD16R,1.700000X1.700000*%
%ADD17O,1.700000X1.700000*%
%ADD18R,1.800000X1.800000*%
%ADD19O,1.800000X1.800000*%
%ADD20R,1.300000X1.500000*%
%ADD21C,1.500000*%
%ADD22C,0.250000*%
%ADD23C,0.254000*%
G04 APERTURE END LIST*
D10*
D11*
X156210000Y-116840000D03*
D12*
X156210000Y-114340000D03*
D11*
X147320000Y-116840000D03*
D12*
X147320000Y-114340000D03*
D13*
X146130000Y-109220000D03*
X143430000Y-109220000D03*
D14*
X137160000Y-114300000D03*
D15*
X137160000Y-119380000D03*
D16*
X138430000Y-104140000D03*
D17*
X140970000Y-104140000D03*
X143510000Y-104140000D03*
X146050000Y-104140000D03*
D16*
X166370000Y-105410000D03*
D14*
X165100000Y-113792000D03*
D15*
X165100000Y-118872000D03*
D18*
X156210000Y-104140000D03*
D19*
X158750000Y-104140000D03*
X161290000Y-104140000D03*
D20*
X151130000Y-104060000D03*
X151130000Y-106760000D03*
D13*
X139780000Y-109220000D03*
X137080000Y-109220000D03*
D21*
X146130000Y-109220000D02*
X165608000Y-109220000D01*
X166370000Y-108458000D02*
X166370000Y-105410000D01*
X165608000Y-109220000D02*
X166370000Y-108458000D01*
X139780000Y-109220000D02*
X143430000Y-109220000D01*
X151130000Y-104060000D02*
X151130000Y-101600000D01*
D22*
X151130000Y-101600000D02*
X150876000Y-101600000D01*
D21*
X156210000Y-104140000D02*
X156210000Y-102870000D01*
X143510000Y-102870000D02*
X143510000Y-104140000D01*
X144780000Y-101600000D02*
X143510000Y-102870000D01*
X154940000Y-101600000D02*
X150876000Y-101600000D01*
X150876000Y-101600000D02*
X144780000Y-101600000D01*
X156210000Y-102870000D02*
X154940000Y-101600000D01*
X146050000Y-104140000D02*
X146050000Y-105918000D01*
X137080000Y-107268000D02*
X137080000Y-109220000D01*
X137668000Y-106680000D02*
X137080000Y-107268000D01*
X145288000Y-106680000D02*
X137668000Y-106680000D01*
X146050000Y-105918000D02*
X145288000Y-106680000D01*
D23*
G36*
X184023000Y-135763000D02*
X115697000Y-135763000D01*
X115697000Y-120360213D01*
X136359392Y-120360213D01*
X136428857Y-120602397D01*
X136952302Y-120789144D01*
X137507368Y-120761362D01*
X137891143Y-120602397D01*
X137960608Y-120360213D01*
X137160000Y-119559605D01*
X136359392Y-120360213D01*
X115697000Y-120360213D01*
X115697000Y-119172302D01*
X135750856Y-119172302D01*
X135778638Y-119727368D01*
X135937603Y-120111143D01*
X136179787Y-120180608D01*
X136980395Y-119380000D01*
X137339605Y-119380000D01*
X138140213Y-120180608D01*
X138382397Y-120111143D01*
X138569144Y-119587698D01*
X138547170Y-119148661D01*
X163702758Y-119148661D01*
X163914990Y-119662303D01*
X164307630Y-120055629D01*
X164820900Y-120268757D01*
X165376661Y-120269242D01*
X165890303Y-120057010D01*
X166283629Y-119664370D01*
X166496757Y-119151100D01*
X166497242Y-118595339D01*
X166285010Y-118081697D01*
X165892370Y-117688371D01*
X165379100Y-117475243D01*
X164823339Y-117474758D01*
X164309697Y-117686990D01*
X163916371Y-118079630D01*
X163703243Y-118592900D01*
X163702758Y-119148661D01*
X138547170Y-119148661D01*
X138541362Y-119032632D01*
X138382397Y-118648857D01*
X138140213Y-118579392D01*
X137339605Y-119380000D01*
X136980395Y-119380000D01*
X136179787Y-118579392D01*
X135937603Y-118648857D01*
X135750856Y-119172302D01*
X115697000Y-119172302D01*
X115697000Y-118399787D01*
X136359392Y-118399787D01*
X137160000Y-119200395D01*
X137960608Y-118399787D01*
X137891143Y-118157603D01*
X137367698Y-117970856D01*
X136812632Y-117998638D01*
X136428857Y-118157603D01*
X136359392Y-118399787D01*
X115697000Y-118399787D01*
X115697000Y-117125750D01*
X145885000Y-117125750D01*
X145885000Y-117766309D01*
X145981673Y-117999698D01*
X146160301Y-118178327D01*
X146393690Y-118275000D01*
X147034250Y-118275000D01*
X147193000Y-118116250D01*
X147193000Y-116967000D01*
X147447000Y-116967000D01*
X147447000Y-118116250D01*
X147605750Y-118275000D01*
X148246310Y-118275000D01*
X148479699Y-118178327D01*
X148658327Y-117999698D01*
X148755000Y-117766309D01*
X148755000Y-117125750D01*
X154775000Y-117125750D01*
X154775000Y-117766309D01*
X154871673Y-117999698D01*
X155050301Y-118178327D01*
X155283690Y-118275000D01*
X155924250Y-118275000D01*
X156083000Y-118116250D01*
X156083000Y-116967000D01*
X156337000Y-116967000D01*
X156337000Y-118116250D01*
X156495750Y-118275000D01*
X157136310Y-118275000D01*
X157369699Y-118178327D01*
X157548327Y-117999698D01*
X157645000Y-117766309D01*
X157645000Y-117125750D01*
X157486250Y-116967000D01*
X156337000Y-116967000D01*
X156083000Y-116967000D01*
X154933750Y-116967000D01*
X154775000Y-117125750D01*
X148755000Y-117125750D01*
X148596250Y-116967000D01*
X147447000Y-116967000D01*
X147193000Y-116967000D01*
X146043750Y-116967000D01*
X145885000Y-117125750D01*
X115697000Y-117125750D01*
X115697000Y-114623795D01*
X135524716Y-114623795D01*
X135773106Y-115224943D01*
X136232637Y-115685278D01*
X136833352Y-115934716D01*
X137483795Y-115935284D01*
X138084943Y-115686894D01*
X138545278Y-115227363D01*
X138794716Y-114626648D01*
X138794718Y-114624187D01*
X145884752Y-114624187D01*
X146102757Y-115151800D01*
X146366683Y-115416187D01*
X146160301Y-115501673D01*
X145981673Y-115680302D01*
X145885000Y-115913691D01*
X145885000Y-116554250D01*
X146043750Y-116713000D01*
X147193000Y-116713000D01*
X147193000Y-116693000D01*
X147447000Y-116693000D01*
X147447000Y-116713000D01*
X148596250Y-116713000D01*
X148755000Y-116554250D01*
X148755000Y-115913691D01*
X148658327Y-115680302D01*
X148479699Y-115501673D01*
X148273165Y-115416124D01*
X148535824Y-115153923D01*
X148754750Y-114626691D01*
X148754752Y-114624187D01*
X154774752Y-114624187D01*
X154992757Y-115151800D01*
X155256683Y-115416187D01*
X155050301Y-115501673D01*
X154871673Y-115680302D01*
X154775000Y-115913691D01*
X154775000Y-116554250D01*
X154933750Y-116713000D01*
X156083000Y-116713000D01*
X156083000Y-116693000D01*
X156337000Y-116693000D01*
X156337000Y-116713000D01*
X157486250Y-116713000D01*
X157645000Y-116554250D01*
X157645000Y-115913691D01*
X157548327Y-115680302D01*
X157369699Y-115501673D01*
X157163165Y-115416124D01*
X157425824Y-115153923D01*
X157644750Y-114626691D01*
X157645195Y-114115795D01*
X163464716Y-114115795D01*
X163713106Y-114716943D01*
X164172637Y-115177278D01*
X164773352Y-115426716D01*
X165423795Y-115427284D01*
X166024943Y-115178894D01*
X166485278Y-114719363D01*
X166734716Y-114118648D01*
X166735284Y-113468205D01*
X166486894Y-112867057D01*
X166027363Y-112406722D01*
X165426648Y-112157284D01*
X164776205Y-112156716D01*
X164175057Y-112405106D01*
X163714722Y-112864637D01*
X163465284Y-113465352D01*
X163464716Y-114115795D01*
X157645195Y-114115795D01*
X157645248Y-114055813D01*
X157427243Y-113528200D01*
X157023923Y-113124176D01*
X156496691Y-112905250D01*
X155925813Y-112904752D01*
X155398200Y-113122757D01*
X154994176Y-113526077D01*
X154775250Y-114053309D01*
X154774752Y-114624187D01*
X148754752Y-114624187D01*
X148755248Y-114055813D01*
X148537243Y-113528200D01*
X148133923Y-113124176D01*
X147606691Y-112905250D01*
X147035813Y-112904752D01*
X146508200Y-113122757D01*
X146104176Y-113526077D01*
X145885250Y-114053309D01*
X145884752Y-114624187D01*
X138794718Y-114624187D01*
X138795284Y-113976205D01*
X138546894Y-113375057D01*
X138087363Y-112914722D01*
X137486648Y-112665284D01*
X136836205Y-112664716D01*
X136235057Y-112913106D01*
X135774722Y-113372637D01*
X135525284Y-113973352D01*
X135524716Y-114623795D01*
X115697000Y-114623795D01*
X115697000Y-108570000D01*
X135682560Y-108570000D01*
X135682560Y-109870000D01*
X135726838Y-110105317D01*
X135865910Y-110321441D01*
X136078110Y-110466431D01*
X136330000Y-110517440D01*
X136639806Y-110517440D01*
X137080000Y-110605000D01*
X137520194Y-110517440D01*
X137830000Y-110517440D01*
X138065317Y-110473162D01*
X138281441Y-110334090D01*
X138426431Y-110121890D01*
X138429081Y-110108803D01*
X138565910Y-110321441D01*
X138778110Y-110466431D01*
X139030000Y-110517440D01*
X139339806Y-110517440D01*
X139780000Y-110605000D01*
X143430000Y-110605000D01*
X143870194Y-110517440D01*
X144180000Y-110517440D01*
X144415317Y-110473162D01*
X144631441Y-110334090D01*
X144776431Y-110121890D01*
X144779081Y-110108803D01*
X144915910Y-110321441D01*
X145128110Y-110466431D01*
X145380000Y-110517440D01*
X145689806Y-110517440D01*
X146130000Y-110605000D01*
X165608000Y-110605000D01*
X166138017Y-110499573D01*
X166587343Y-110199343D01*
X167349343Y-109437343D01*
X167649574Y-108988016D01*
X167755000Y-108458000D01*
X167755000Y-106601797D01*
X167816431Y-106511890D01*
X167867440Y-106260000D01*
X167867440Y-104560000D01*
X167823162Y-104324683D01*
X167684090Y-104108559D01*
X167471890Y-103963569D01*
X167220000Y-103912560D01*
X165520000Y-103912560D01*
X165284683Y-103956838D01*
X165068559Y-104095910D01*
X164923569Y-104308110D01*
X164872560Y-104560000D01*
X164872560Y-106260000D01*
X164916838Y-106495317D01*
X164985000Y-106601244D01*
X164985000Y-107835000D01*
X152332699Y-107835000D01*
X152415000Y-107636309D01*
X152415000Y-107045750D01*
X152256250Y-106887000D01*
X151257000Y-106887000D01*
X151257000Y-106907000D01*
X151003000Y-106907000D01*
X151003000Y-106887000D01*
X150003750Y-106887000D01*
X149845000Y-107045750D01*
X149845000Y-107636309D01*
X149927301Y-107835000D01*
X146130000Y-107835000D01*
X145951237Y-107870558D01*
X146267343Y-107659343D01*
X147029343Y-106897343D01*
X147329574Y-106448016D01*
X147435000Y-105918000D01*
X147435000Y-104671827D01*
X147535000Y-104169093D01*
X147535000Y-104110907D01*
X147421961Y-103542622D01*
X147100054Y-103060853D01*
X146986532Y-102985000D01*
X149745000Y-102985000D01*
X149745000Y-104060000D01*
X149832560Y-104500194D01*
X149832560Y-104810000D01*
X149876838Y-105045317D01*
X150015910Y-105261441D01*
X150228110Y-105406431D01*
X150261490Y-105413191D01*
X150120301Y-105471673D01*
X149941673Y-105650302D01*
X149845000Y-105883691D01*
X149845000Y-106474250D01*
X150003750Y-106633000D01*
X151003000Y-106633000D01*
X151003000Y-106613000D01*
X151257000Y-106613000D01*
X151257000Y-106633000D01*
X152256250Y-106633000D01*
X152415000Y-106474250D01*
X152415000Y-105883691D01*
X152318327Y-105650302D01*
X152139699Y-105471673D01*
X152003713Y-105415346D01*
X152015317Y-105413162D01*
X152231441Y-105274090D01*
X152376431Y-105061890D01*
X152427440Y-104810000D01*
X152427440Y-104500194D01*
X152515000Y-104060000D01*
X152515000Y-102985000D01*
X154366314Y-102985000D01*
X154662560Y-103281246D01*
X154662560Y-105040000D01*
X154706838Y-105275317D01*
X154845910Y-105491441D01*
X155058110Y-105636431D01*
X155310000Y-105687440D01*
X157110000Y-105687440D01*
X157345317Y-105643162D01*
X157561441Y-105504090D01*
X157706431Y-105291890D01*
X157709719Y-105275656D01*
X158132509Y-105558155D01*
X158719928Y-105675000D01*
X158780072Y-105675000D01*
X159367491Y-105558155D01*
X159865481Y-105225409D01*
X160024501Y-104987418D01*
X160382424Y-105377966D01*
X160925258Y-105631046D01*
X161163000Y-105510997D01*
X161163000Y-104267000D01*
X161417000Y-104267000D01*
X161417000Y-105510997D01*
X161654742Y-105631046D01*
X162197576Y-105377966D01*
X162602240Y-104936417D01*
X162781036Y-104504740D01*
X162660378Y-104267000D01*
X161417000Y-104267000D01*
X161163000Y-104267000D01*
X161143000Y-104267000D01*
X161143000Y-104013000D01*
X161163000Y-104013000D01*
X161163000Y-102769003D01*
X161417000Y-102769003D01*
X161417000Y-104013000D01*
X162660378Y-104013000D01*
X162781036Y-103775260D01*
X162602240Y-103343583D01*
X162197576Y-102902034D01*
X161654742Y-102648954D01*
X161417000Y-102769003D01*
X161163000Y-102769003D01*
X160925258Y-102648954D01*
X160382424Y-102902034D01*
X160024501Y-103292582D01*
X159865481Y-103054591D01*
X159367491Y-102721845D01*
X158780072Y-102605000D01*
X158719928Y-102605000D01*
X158132509Y-102721845D01*
X157711974Y-103002837D01*
X157580908Y-102799154D01*
X157489573Y-102339983D01*
X157189343Y-101890657D01*
X155919343Y-100620657D01*
X155470017Y-100320427D01*
X154940000Y-100215000D01*
X144780000Y-100215000D01*
X144249983Y-100320427D01*
X143800657Y-100620657D01*
X142530657Y-101890657D01*
X142230427Y-102339983D01*
X142125000Y-102870000D01*
X142125000Y-103222022D01*
X141736924Y-102868355D01*
X141326890Y-102698524D01*
X141097000Y-102819845D01*
X141097000Y-104013000D01*
X141117000Y-104013000D01*
X141117000Y-104267000D01*
X141097000Y-104267000D01*
X141097000Y-104287000D01*
X140843000Y-104287000D01*
X140843000Y-104267000D01*
X140823000Y-104267000D01*
X140823000Y-104013000D01*
X140843000Y-104013000D01*
X140843000Y-102819845D01*
X140613110Y-102698524D01*
X140203076Y-102868355D01*
X139900063Y-103144501D01*
X139883162Y-103054683D01*
X139744090Y-102838559D01*
X139531890Y-102693569D01*
X139280000Y-102642560D01*
X137580000Y-102642560D01*
X137344683Y-102686838D01*
X137128559Y-102825910D01*
X136983569Y-103038110D01*
X136932560Y-103290000D01*
X136932560Y-104990000D01*
X136976838Y-105225317D01*
X137104090Y-105423073D01*
X136688657Y-105700657D01*
X136100657Y-106288657D01*
X135800427Y-106737983D01*
X135695000Y-107268000D01*
X135695000Y-108508569D01*
X135682560Y-108570000D01*
X115697000Y-108570000D01*
X115697000Y-91567000D01*
X184023000Y-91567000D01*
X184023000Y-135763000D01*
X184023000Y-135763000D01*
G37*
X184023000Y-135763000D02*
X115697000Y-135763000D01*
X115697000Y-120360213D01*
X136359392Y-120360213D01*
X136428857Y-120602397D01*
X136952302Y-120789144D01*
X137507368Y-120761362D01*
X137891143Y-120602397D01*
X137960608Y-120360213D01*
X137160000Y-119559605D01*
X136359392Y-120360213D01*
X115697000Y-120360213D01*
X115697000Y-119172302D01*
X135750856Y-119172302D01*
X135778638Y-119727368D01*
X135937603Y-120111143D01*
X136179787Y-120180608D01*
X136980395Y-119380000D01*
X137339605Y-119380000D01*
X138140213Y-120180608D01*
X138382397Y-120111143D01*
X138569144Y-119587698D01*
X138547170Y-119148661D01*
X163702758Y-119148661D01*
X163914990Y-119662303D01*
X164307630Y-120055629D01*
X164820900Y-120268757D01*
X165376661Y-120269242D01*
X165890303Y-120057010D01*
X166283629Y-119664370D01*
X166496757Y-119151100D01*
X166497242Y-118595339D01*
X166285010Y-118081697D01*
X165892370Y-117688371D01*
X165379100Y-117475243D01*
X164823339Y-117474758D01*
X164309697Y-117686990D01*
X163916371Y-118079630D01*
X163703243Y-118592900D01*
X163702758Y-119148661D01*
X138547170Y-119148661D01*
X138541362Y-119032632D01*
X138382397Y-118648857D01*
X138140213Y-118579392D01*
X137339605Y-119380000D01*
X136980395Y-119380000D01*
X136179787Y-118579392D01*
X135937603Y-118648857D01*
X135750856Y-119172302D01*
X115697000Y-119172302D01*
X115697000Y-118399787D01*
X136359392Y-118399787D01*
X137160000Y-119200395D01*
X137960608Y-118399787D01*
X137891143Y-118157603D01*
X137367698Y-117970856D01*
X136812632Y-117998638D01*
X136428857Y-118157603D01*
X136359392Y-118399787D01*
X115697000Y-118399787D01*
X115697000Y-117125750D01*
X145885000Y-117125750D01*
X145885000Y-117766309D01*
X145981673Y-117999698D01*
X146160301Y-118178327D01*
X146393690Y-118275000D01*
X147034250Y-118275000D01*
X147193000Y-118116250D01*
X147193000Y-116967000D01*
X147447000Y-116967000D01*
X147447000Y-118116250D01*
X147605750Y-118275000D01*
X148246310Y-118275000D01*
X148479699Y-118178327D01*
X148658327Y-117999698D01*
X148755000Y-117766309D01*
X148755000Y-117125750D01*
X154775000Y-117125750D01*
X154775000Y-117766309D01*
X154871673Y-117999698D01*
X155050301Y-118178327D01*
X155283690Y-118275000D01*
X155924250Y-118275000D01*
X156083000Y-118116250D01*
X156083000Y-116967000D01*
X156337000Y-116967000D01*
X156337000Y-118116250D01*
X156495750Y-118275000D01*
X157136310Y-118275000D01*
X157369699Y-118178327D01*
X157548327Y-117999698D01*
X157645000Y-117766309D01*
X157645000Y-117125750D01*
X157486250Y-116967000D01*
X156337000Y-116967000D01*
X156083000Y-116967000D01*
X154933750Y-116967000D01*
X154775000Y-117125750D01*
X148755000Y-117125750D01*
X148596250Y-116967000D01*
X147447000Y-116967000D01*
X147193000Y-116967000D01*
X146043750Y-116967000D01*
X145885000Y-117125750D01*
X115697000Y-117125750D01*
X115697000Y-114623795D01*
X135524716Y-114623795D01*
X135773106Y-115224943D01*
X136232637Y-115685278D01*
X136833352Y-115934716D01*
X137483795Y-115935284D01*
X138084943Y-115686894D01*
X138545278Y-115227363D01*
X138794716Y-114626648D01*
X138794718Y-114624187D01*
X145884752Y-114624187D01*
X146102757Y-115151800D01*
X146366683Y-115416187D01*
X146160301Y-115501673D01*
X145981673Y-115680302D01*
X145885000Y-115913691D01*
X145885000Y-116554250D01*
X146043750Y-116713000D01*
X147193000Y-116713000D01*
X147193000Y-116693000D01*
X147447000Y-116693000D01*
X147447000Y-116713000D01*
X148596250Y-116713000D01*
X148755000Y-116554250D01*
X148755000Y-115913691D01*
X148658327Y-115680302D01*
X148479699Y-115501673D01*
X148273165Y-115416124D01*
X148535824Y-115153923D01*
X148754750Y-114626691D01*
X148754752Y-114624187D01*
X154774752Y-114624187D01*
X154992757Y-115151800D01*
X155256683Y-115416187D01*
X155050301Y-115501673D01*
X154871673Y-115680302D01*
X154775000Y-115913691D01*
X154775000Y-116554250D01*
X154933750Y-116713000D01*
X156083000Y-116713000D01*
X156083000Y-116693000D01*
X156337000Y-116693000D01*
X156337000Y-116713000D01*
X157486250Y-116713000D01*
X157645000Y-116554250D01*
X157645000Y-115913691D01*
X157548327Y-115680302D01*
X157369699Y-115501673D01*
X157163165Y-115416124D01*
X157425824Y-115153923D01*
X157644750Y-114626691D01*
X157645195Y-114115795D01*
X163464716Y-114115795D01*
X163713106Y-114716943D01*
X164172637Y-115177278D01*
X164773352Y-115426716D01*
X165423795Y-115427284D01*
X166024943Y-115178894D01*
X166485278Y-114719363D01*
X166734716Y-114118648D01*
X166735284Y-113468205D01*
X166486894Y-112867057D01*
X166027363Y-112406722D01*
X165426648Y-112157284D01*
X164776205Y-112156716D01*
X164175057Y-112405106D01*
X163714722Y-112864637D01*
X163465284Y-113465352D01*
X163464716Y-114115795D01*
X157645195Y-114115795D01*
X157645248Y-114055813D01*
X157427243Y-113528200D01*
X157023923Y-113124176D01*
X156496691Y-112905250D01*
X155925813Y-112904752D01*
X155398200Y-113122757D01*
X154994176Y-113526077D01*
X154775250Y-114053309D01*
X154774752Y-114624187D01*
X148754752Y-114624187D01*
X148755248Y-114055813D01*
X148537243Y-113528200D01*
X148133923Y-113124176D01*
X147606691Y-112905250D01*
X147035813Y-112904752D01*
X146508200Y-113122757D01*
X146104176Y-113526077D01*
X145885250Y-114053309D01*
X145884752Y-114624187D01*
X138794718Y-114624187D01*
X138795284Y-113976205D01*
X138546894Y-113375057D01*
X138087363Y-112914722D01*
X137486648Y-112665284D01*
X136836205Y-112664716D01*
X136235057Y-112913106D01*
X135774722Y-113372637D01*
X135525284Y-113973352D01*
X135524716Y-114623795D01*
X115697000Y-114623795D01*
X115697000Y-108570000D01*
X135682560Y-108570000D01*
X135682560Y-109870000D01*
X135726838Y-110105317D01*
X135865910Y-110321441D01*
X136078110Y-110466431D01*
X136330000Y-110517440D01*
X136639806Y-110517440D01*
X137080000Y-110605000D01*
X137520194Y-110517440D01*
X137830000Y-110517440D01*
X138065317Y-110473162D01*
X138281441Y-110334090D01*
X138426431Y-110121890D01*
X138429081Y-110108803D01*
X138565910Y-110321441D01*
X138778110Y-110466431D01*
X139030000Y-110517440D01*
X139339806Y-110517440D01*
X139780000Y-110605000D01*
X143430000Y-110605000D01*
X143870194Y-110517440D01*
X144180000Y-110517440D01*
X144415317Y-110473162D01*
X144631441Y-110334090D01*
X144776431Y-110121890D01*
X144779081Y-110108803D01*
X144915910Y-110321441D01*
X145128110Y-110466431D01*
X145380000Y-110517440D01*
X145689806Y-110517440D01*
X146130000Y-110605000D01*
X165608000Y-110605000D01*
X166138017Y-110499573D01*
X166587343Y-110199343D01*
X167349343Y-109437343D01*
X167649574Y-108988016D01*
X167755000Y-108458000D01*
X167755000Y-106601797D01*
X167816431Y-106511890D01*
X167867440Y-106260000D01*
X167867440Y-104560000D01*
X167823162Y-104324683D01*
X167684090Y-104108559D01*
X167471890Y-103963569D01*
X167220000Y-103912560D01*
X165520000Y-103912560D01*
X165284683Y-103956838D01*
X165068559Y-104095910D01*
X164923569Y-104308110D01*
X164872560Y-104560000D01*
X164872560Y-106260000D01*
X164916838Y-106495317D01*
X164985000Y-106601244D01*
X164985000Y-107835000D01*
X152332699Y-107835000D01*
X152415000Y-107636309D01*
X152415000Y-107045750D01*
X152256250Y-106887000D01*
X151257000Y-106887000D01*
X151257000Y-106907000D01*
X151003000Y-106907000D01*
X151003000Y-106887000D01*
X150003750Y-106887000D01*
X149845000Y-107045750D01*
X149845000Y-107636309D01*
X149927301Y-107835000D01*
X146130000Y-107835000D01*
X145951237Y-107870558D01*
X146267343Y-107659343D01*
X147029343Y-106897343D01*
X147329574Y-106448016D01*
X147435000Y-105918000D01*
X147435000Y-104671827D01*
X147535000Y-104169093D01*
X147535000Y-104110907D01*
X147421961Y-103542622D01*
X147100054Y-103060853D01*
X146986532Y-102985000D01*
X149745000Y-102985000D01*
X149745000Y-104060000D01*
X149832560Y-104500194D01*
X149832560Y-104810000D01*
X149876838Y-105045317D01*
X150015910Y-105261441D01*
X150228110Y-105406431D01*
X150261490Y-105413191D01*
X150120301Y-105471673D01*
X149941673Y-105650302D01*
X149845000Y-105883691D01*
X149845000Y-106474250D01*
X150003750Y-106633000D01*
X151003000Y-106633000D01*
X151003000Y-106613000D01*
X151257000Y-106613000D01*
X151257000Y-106633000D01*
X152256250Y-106633000D01*
X152415000Y-106474250D01*
X152415000Y-105883691D01*
X152318327Y-105650302D01*
X152139699Y-105471673D01*
X152003713Y-105415346D01*
X152015317Y-105413162D01*
X152231441Y-105274090D01*
X152376431Y-105061890D01*
X152427440Y-104810000D01*
X152427440Y-104500194D01*
X152515000Y-104060000D01*
X152515000Y-102985000D01*
X154366314Y-102985000D01*
X154662560Y-103281246D01*
X154662560Y-105040000D01*
X154706838Y-105275317D01*
X154845910Y-105491441D01*
X155058110Y-105636431D01*
X155310000Y-105687440D01*
X157110000Y-105687440D01*
X157345317Y-105643162D01*
X157561441Y-105504090D01*
X157706431Y-105291890D01*
X157709719Y-105275656D01*
X158132509Y-105558155D01*
X158719928Y-105675000D01*
X158780072Y-105675000D01*
X159367491Y-105558155D01*
X159865481Y-105225409D01*
X160024501Y-104987418D01*
X160382424Y-105377966D01*
X160925258Y-105631046D01*
X161163000Y-105510997D01*
X161163000Y-104267000D01*
X161417000Y-104267000D01*
X161417000Y-105510997D01*
X161654742Y-105631046D01*
X162197576Y-105377966D01*
X162602240Y-104936417D01*
X162781036Y-104504740D01*
X162660378Y-104267000D01*
X161417000Y-104267000D01*
X161163000Y-104267000D01*
X161143000Y-104267000D01*
X161143000Y-104013000D01*
X161163000Y-104013000D01*
X161163000Y-102769003D01*
X161417000Y-102769003D01*
X161417000Y-104013000D01*
X162660378Y-104013000D01*
X162781036Y-103775260D01*
X162602240Y-103343583D01*
X162197576Y-102902034D01*
X161654742Y-102648954D01*
X161417000Y-102769003D01*
X161163000Y-102769003D01*
X160925258Y-102648954D01*
X160382424Y-102902034D01*
X160024501Y-103292582D01*
X159865481Y-103054591D01*
X159367491Y-102721845D01*
X158780072Y-102605000D01*
X158719928Y-102605000D01*
X158132509Y-102721845D01*
X157711974Y-103002837D01*
X157580908Y-102799154D01*
X157489573Y-102339983D01*
X157189343Y-101890657D01*
X155919343Y-100620657D01*
X155470017Y-100320427D01*
X154940000Y-100215000D01*
X144780000Y-100215000D01*
X144249983Y-100320427D01*
X143800657Y-100620657D01*
X142530657Y-101890657D01*
X142230427Y-102339983D01*
X142125000Y-102870000D01*
X142125000Y-103222022D01*
X141736924Y-102868355D01*
X141326890Y-102698524D01*
X141097000Y-102819845D01*
X141097000Y-104013000D01*
X141117000Y-104013000D01*
X141117000Y-104267000D01*
X141097000Y-104267000D01*
X141097000Y-104287000D01*
X140843000Y-104287000D01*
X140843000Y-104267000D01*
X140823000Y-104267000D01*
X140823000Y-104013000D01*
X140843000Y-104013000D01*
X140843000Y-102819845D01*
X140613110Y-102698524D01*
X140203076Y-102868355D01*
X139900063Y-103144501D01*
X139883162Y-103054683D01*
X139744090Y-102838559D01*
X139531890Y-102693569D01*
X139280000Y-102642560D01*
X137580000Y-102642560D01*
X137344683Y-102686838D01*
X137128559Y-102825910D01*
X136983569Y-103038110D01*
X136932560Y-103290000D01*
X136932560Y-104990000D01*
X136976838Y-105225317D01*
X137104090Y-105423073D01*
X136688657Y-105700657D01*
X136100657Y-106288657D01*
X135800427Y-106737983D01*
X135695000Y-107268000D01*
X135695000Y-108508569D01*
X135682560Y-108570000D01*
X115697000Y-108570000D01*
X115697000Y-91567000D01*
X184023000Y-91567000D01*
X184023000Y-135763000D01*
M02*
