G04 #@! TF.FileFunction,Other,Fab,Top*
%FSLAX46Y46*%
G04 Gerber Fmt 4.6, Leading zero omitted, Abs format (unit mm)*
G04 Created by KiCad (PCBNEW 4.0.6) date 12/10/17 20:37:35*
%MOMM*%
%LPD*%
G01*
G04 APERTURE LIST*
%ADD10C,0.100000*%
%ADD11C,0.300000*%
%ADD12C,0.150000*%
%ADD13C,0.075000*%
G04 APERTURE END LIST*
D10*
D11*
X150141714Y-100881714D02*
X150213143Y-100953143D01*
X150284571Y-101167429D01*
X150284571Y-101310286D01*
X150213143Y-101524571D01*
X150070286Y-101667429D01*
X149927429Y-101738857D01*
X149641714Y-101810286D01*
X149427429Y-101810286D01*
X149141714Y-101738857D01*
X148998857Y-101667429D01*
X148856000Y-101524571D01*
X148784571Y-101310286D01*
X148784571Y-101167429D01*
X148856000Y-100953143D01*
X148927429Y-100881714D01*
X150340143Y-104314571D02*
X150411571Y-104100285D01*
X150411571Y-103743142D01*
X150340143Y-103600285D01*
X150268714Y-103528856D01*
X150125857Y-103457428D01*
X149983000Y-103457428D01*
X149840143Y-103528856D01*
X149768714Y-103600285D01*
X149697286Y-103743142D01*
X149625857Y-104028856D01*
X149554429Y-104171714D01*
X149483000Y-104243142D01*
X149340143Y-104314571D01*
X149197286Y-104314571D01*
X149054429Y-104243142D01*
X148983000Y-104171714D01*
X148911571Y-104028856D01*
X148911571Y-103671714D01*
X148983000Y-103457428D01*
X148983000Y-105779143D02*
X148911571Y-105922000D01*
X148911571Y-106136286D01*
X148983000Y-106350571D01*
X149125857Y-106493429D01*
X149268714Y-106564857D01*
X149554429Y-106636286D01*
X149768714Y-106636286D01*
X150054429Y-106564857D01*
X150197286Y-106493429D01*
X150340143Y-106350571D01*
X150411571Y-106136286D01*
X150411571Y-105993429D01*
X150340143Y-105779143D01*
X150268714Y-105707714D01*
X149768714Y-105707714D01*
X149768714Y-105993429D01*
D10*
X153991000Y-114915000D02*
G75*
G03X153991000Y-114915000I-3750000J0D01*
G01*
X150241000Y-111465000D02*
X150241000Y-112665000D01*
X150891000Y-112065000D02*
X149591000Y-112065000D01*
X145482000Y-114915000D02*
G75*
G03X145482000Y-114915000I-3750000J0D01*
G01*
X141732000Y-111465000D02*
X141732000Y-112665000D01*
X142382000Y-112065000D02*
X141082000Y-112065000D01*
X145269000Y-108858000D02*
X146069000Y-108858000D01*
X145669000Y-108858000D02*
X145269000Y-108258000D01*
X146069000Y-108258000D02*
X145669000Y-108858000D01*
X145269000Y-108258000D02*
X146069000Y-108258000D01*
X146289000Y-109458000D02*
X145049000Y-109458000D01*
X146289000Y-107458000D02*
X146289000Y-109458000D01*
X145049000Y-107458000D02*
X146289000Y-107458000D01*
X145049000Y-109458000D02*
X145049000Y-107458000D01*
X153162000Y-110236000D02*
X151257000Y-110236000D01*
X151257000Y-110236000D02*
X151257000Y-100076000D01*
X151257000Y-100076000D02*
X153797000Y-100076000D01*
X153797000Y-100076000D02*
X153797000Y-109601000D01*
X153797000Y-109601000D02*
X153162000Y-110236000D01*
X148209000Y-107696000D02*
X150114000Y-107696000D01*
X150114000Y-107696000D02*
X150114000Y-110236000D01*
X150114000Y-110236000D02*
X147574000Y-110236000D01*
X147574000Y-110236000D02*
X147574000Y-108331000D01*
X147574000Y-108331000D02*
X148209000Y-107696000D01*
X137835000Y-110537000D02*
X142235000Y-110537000D01*
X142235000Y-110537000D02*
X142235000Y-100537000D01*
X142235000Y-100537000D02*
X137835000Y-100537000D01*
X137835000Y-100537000D02*
X137835000Y-110537000D01*
X139105000Y-110537000D02*
X139105000Y-100537000D01*
X137835000Y-107387000D02*
X139105000Y-107387000D01*
X137835000Y-103687000D02*
X139105000Y-103687000D01*
X143144000Y-107458000D02*
X144384000Y-107458000D01*
X143144000Y-109458000D02*
X143144000Y-107458000D01*
X144384000Y-109458000D02*
X143144000Y-109458000D01*
X144384000Y-107458000D02*
X144384000Y-109458000D01*
X146289000Y-104632000D02*
X145049000Y-104632000D01*
X146289000Y-102632000D02*
X146289000Y-104632000D01*
X145049000Y-102632000D02*
X146289000Y-102632000D01*
X145049000Y-104632000D02*
X145049000Y-102632000D01*
D12*
X150598143Y-115081666D02*
X150645762Y-115129285D01*
X150693381Y-115272142D01*
X150693381Y-115367380D01*
X150645762Y-115510238D01*
X150550524Y-115605476D01*
X150455286Y-115653095D01*
X150264810Y-115700714D01*
X150121952Y-115700714D01*
X149931476Y-115653095D01*
X149836238Y-115605476D01*
X149741000Y-115510238D01*
X149693381Y-115367380D01*
X149693381Y-115272142D01*
X149741000Y-115129285D01*
X149788619Y-115081666D01*
X150693381Y-114129285D02*
X150693381Y-114700714D01*
X150693381Y-114415000D02*
X149693381Y-114415000D01*
X149836238Y-114510238D01*
X149931476Y-114605476D01*
X149979095Y-114700714D01*
X142089143Y-115081666D02*
X142136762Y-115129285D01*
X142184381Y-115272142D01*
X142184381Y-115367380D01*
X142136762Y-115510238D01*
X142041524Y-115605476D01*
X141946286Y-115653095D01*
X141755810Y-115700714D01*
X141612952Y-115700714D01*
X141422476Y-115653095D01*
X141327238Y-115605476D01*
X141232000Y-115510238D01*
X141184381Y-115367380D01*
X141184381Y-115272142D01*
X141232000Y-115129285D01*
X141279619Y-115081666D01*
X141279619Y-114700714D02*
X141232000Y-114653095D01*
X141184381Y-114557857D01*
X141184381Y-114319761D01*
X141232000Y-114224523D01*
X141279619Y-114176904D01*
X141374857Y-114129285D01*
X141470095Y-114129285D01*
X141612952Y-114176904D01*
X142184381Y-114748333D01*
X142184381Y-114129285D01*
X147337429Y-109481857D02*
X147337429Y-109958048D01*
X146737429Y-109958048D01*
X147023143Y-109148524D02*
X147023143Y-108815190D01*
X147337429Y-108672333D02*
X147337429Y-109148524D01*
X146737429Y-109148524D01*
X146737429Y-108672333D01*
X147337429Y-108243762D02*
X146737429Y-108243762D01*
X146737429Y-108005667D01*
X146766000Y-107862809D01*
X146823143Y-107767571D01*
X146880286Y-107719952D01*
X146994571Y-107672333D01*
X147080286Y-107672333D01*
X147194571Y-107719952D01*
X147251714Y-107767571D01*
X147308857Y-107862809D01*
X147337429Y-108005667D01*
X147337429Y-108243762D01*
X129484381Y-116228524D02*
X128484381Y-116228524D01*
X128484381Y-115847571D01*
X128532000Y-115752333D01*
X128579619Y-115704714D01*
X128674857Y-115657095D01*
X128817714Y-115657095D01*
X128912952Y-115704714D01*
X128960571Y-115752333D01*
X129008190Y-115847571D01*
X129008190Y-116228524D01*
X128484381Y-115038048D02*
X128484381Y-114847571D01*
X128532000Y-114752333D01*
X128627238Y-114657095D01*
X128817714Y-114609476D01*
X129151048Y-114609476D01*
X129341524Y-114657095D01*
X129436762Y-114752333D01*
X129484381Y-114847571D01*
X129484381Y-115038048D01*
X129436762Y-115133286D01*
X129341524Y-115228524D01*
X129151048Y-115276143D01*
X128817714Y-115276143D01*
X128627238Y-115228524D01*
X128532000Y-115133286D01*
X128484381Y-115038048D01*
X128484381Y-114276143D02*
X129484381Y-114038048D01*
X128770095Y-113847571D01*
X129484381Y-113657095D01*
X128484381Y-113419000D01*
X128960571Y-113038048D02*
X128960571Y-112704714D01*
X129484381Y-112561857D02*
X129484381Y-113038048D01*
X128484381Y-113038048D01*
X128484381Y-112561857D01*
X129484381Y-111561857D02*
X129008190Y-111895191D01*
X129484381Y-112133286D02*
X128484381Y-112133286D01*
X128484381Y-111752333D01*
X128532000Y-111657095D01*
X128579619Y-111609476D01*
X128674857Y-111561857D01*
X128817714Y-111561857D01*
X128912952Y-111609476D01*
X128960571Y-111657095D01*
X129008190Y-111752333D01*
X129008190Y-112133286D01*
X148296381Y-109299333D02*
X149010667Y-109299333D01*
X149153524Y-109346953D01*
X149248762Y-109442191D01*
X149296381Y-109585048D01*
X149296381Y-109680286D01*
X148296381Y-108918381D02*
X148296381Y-108299333D01*
X148677333Y-108632667D01*
X148677333Y-108489809D01*
X148724952Y-108394571D01*
X148772571Y-108346952D01*
X148867810Y-108299333D01*
X149105905Y-108299333D01*
X149201143Y-108346952D01*
X149248762Y-108394571D01*
X149296381Y-108489809D01*
X149296381Y-108775524D01*
X149248762Y-108870762D01*
X149201143Y-108918381D01*
X129484381Y-105766905D02*
X128484381Y-105766905D01*
X129198667Y-105433571D01*
X128484381Y-105100238D01*
X129484381Y-105100238D01*
X128484381Y-104433572D02*
X128484381Y-104243095D01*
X128532000Y-104147857D01*
X128627238Y-104052619D01*
X128817714Y-104005000D01*
X129151048Y-104005000D01*
X129341524Y-104052619D01*
X129436762Y-104147857D01*
X129484381Y-104243095D01*
X129484381Y-104433572D01*
X129436762Y-104528810D01*
X129341524Y-104624048D01*
X129151048Y-104671667D01*
X128817714Y-104671667D01*
X128627238Y-104624048D01*
X128532000Y-104528810D01*
X128484381Y-104433572D01*
X128484381Y-103719286D02*
X128484381Y-103147857D01*
X129484381Y-103433572D02*
X128484381Y-103433572D01*
X128484381Y-102624048D02*
X128484381Y-102433571D01*
X128532000Y-102338333D01*
X128627238Y-102243095D01*
X128817714Y-102195476D01*
X129151048Y-102195476D01*
X129341524Y-102243095D01*
X129436762Y-102338333D01*
X129484381Y-102433571D01*
X129484381Y-102624048D01*
X129436762Y-102719286D01*
X129341524Y-102814524D01*
X129151048Y-102862143D01*
X128817714Y-102862143D01*
X128627238Y-102814524D01*
X128532000Y-102719286D01*
X128484381Y-102624048D01*
X129484381Y-101195476D02*
X129008190Y-101528810D01*
X129484381Y-101766905D02*
X128484381Y-101766905D01*
X128484381Y-101385952D01*
X128532000Y-101290714D01*
X128579619Y-101243095D01*
X128674857Y-101195476D01*
X128817714Y-101195476D01*
X128912952Y-101243095D01*
X128960571Y-101290714D01*
X129008190Y-101385952D01*
X129008190Y-101766905D01*
X137262619Y-105632238D02*
X137215000Y-105727476D01*
X137119762Y-105822714D01*
X136976905Y-105965571D01*
X136929286Y-106060810D01*
X136929286Y-106156048D01*
X137167381Y-106108429D02*
X137119762Y-106203667D01*
X137024524Y-106298905D01*
X136834048Y-106346524D01*
X136500714Y-106346524D01*
X136310238Y-106298905D01*
X136215000Y-106203667D01*
X136167381Y-106108429D01*
X136167381Y-105917952D01*
X136215000Y-105822714D01*
X136310238Y-105727476D01*
X136500714Y-105679857D01*
X136834048Y-105679857D01*
X137024524Y-105727476D01*
X137119762Y-105822714D01*
X137167381Y-105917952D01*
X137167381Y-106108429D01*
X137167381Y-104727476D02*
X137167381Y-105298905D01*
X137167381Y-105013191D02*
X136167381Y-105013191D01*
X136310238Y-105108429D01*
X136405476Y-105203667D01*
X136453095Y-105298905D01*
X144216381Y-105187619D02*
X143740190Y-105520953D01*
X144216381Y-105759048D02*
X143216381Y-105759048D01*
X143216381Y-105378095D01*
X143264000Y-105282857D01*
X143311619Y-105235238D01*
X143406857Y-105187619D01*
X143549714Y-105187619D01*
X143644952Y-105235238D01*
X143692571Y-105282857D01*
X143740190Y-105378095D01*
X143740190Y-105759048D01*
X143216381Y-104092381D02*
X143216381Y-103473333D01*
X143597333Y-103806667D01*
X143597333Y-103663809D01*
X143644952Y-103568571D01*
X143692571Y-103520952D01*
X143787810Y-103473333D01*
X144025905Y-103473333D01*
X144121143Y-103520952D01*
X144168762Y-103568571D01*
X144216381Y-103663809D01*
X144216381Y-103949524D01*
X144168762Y-104044762D01*
X144121143Y-104092381D01*
X144216381Y-103044762D02*
X143216381Y-103044762D01*
X144216381Y-102473333D02*
X143644952Y-102901905D01*
X143216381Y-102473333D02*
X143787810Y-103044762D01*
D13*
X143990190Y-108541333D02*
X143752095Y-108708000D01*
X143990190Y-108827047D02*
X143490190Y-108827047D01*
X143490190Y-108636571D01*
X143514000Y-108588952D01*
X143537810Y-108565143D01*
X143585429Y-108541333D01*
X143656857Y-108541333D01*
X143704476Y-108565143D01*
X143728286Y-108588952D01*
X143752095Y-108636571D01*
X143752095Y-108827047D01*
X143990190Y-108065143D02*
X143990190Y-108350857D01*
X143990190Y-108208000D02*
X143490190Y-108208000D01*
X143561619Y-108255619D01*
X143609238Y-108303238D01*
X143633048Y-108350857D01*
D12*
X147772381Y-105132000D02*
X147296190Y-105465334D01*
X147772381Y-105703429D02*
X146772381Y-105703429D01*
X146772381Y-105322476D01*
X146820000Y-105227238D01*
X146867619Y-105179619D01*
X146962857Y-105132000D01*
X147105714Y-105132000D01*
X147200952Y-105179619D01*
X147248571Y-105227238D01*
X147296190Y-105322476D01*
X147296190Y-105703429D01*
X146772381Y-104036762D02*
X146772381Y-103417714D01*
X147153333Y-103751048D01*
X147153333Y-103608190D01*
X147200952Y-103512952D01*
X147248571Y-103465333D01*
X147343810Y-103417714D01*
X147581905Y-103417714D01*
X147677143Y-103465333D01*
X147724762Y-103512952D01*
X147772381Y-103608190D01*
X147772381Y-103893905D01*
X147724762Y-103989143D01*
X147677143Y-104036762D01*
X146772381Y-103084381D02*
X146772381Y-102465333D01*
X147153333Y-102798667D01*
X147153333Y-102655809D01*
X147200952Y-102560571D01*
X147248571Y-102512952D01*
X147343810Y-102465333D01*
X147581905Y-102465333D01*
X147677143Y-102512952D01*
X147724762Y-102560571D01*
X147772381Y-102655809D01*
X147772381Y-102941524D01*
X147724762Y-103036762D01*
X147677143Y-103084381D01*
X146772381Y-101846286D02*
X146772381Y-101751047D01*
X146820000Y-101655809D01*
X146867619Y-101608190D01*
X146962857Y-101560571D01*
X147153333Y-101512952D01*
X147391429Y-101512952D01*
X147581905Y-101560571D01*
X147677143Y-101608190D01*
X147724762Y-101655809D01*
X147772381Y-101751047D01*
X147772381Y-101846286D01*
X147724762Y-101941524D01*
X147677143Y-101989143D01*
X147581905Y-102036762D01*
X147391429Y-102084381D01*
X147153333Y-102084381D01*
X146962857Y-102036762D01*
X146867619Y-101989143D01*
X146820000Y-101941524D01*
X146772381Y-101846286D01*
D13*
X145895190Y-103715333D02*
X145657095Y-103882000D01*
X145895190Y-104001047D02*
X145395190Y-104001047D01*
X145395190Y-103810571D01*
X145419000Y-103762952D01*
X145442810Y-103739143D01*
X145490429Y-103715333D01*
X145561857Y-103715333D01*
X145609476Y-103739143D01*
X145633286Y-103762952D01*
X145657095Y-103810571D01*
X145657095Y-104001047D01*
X145442810Y-103524857D02*
X145419000Y-103501047D01*
X145395190Y-103453428D01*
X145395190Y-103334381D01*
X145419000Y-103286762D01*
X145442810Y-103262952D01*
X145490429Y-103239143D01*
X145538048Y-103239143D01*
X145609476Y-103262952D01*
X145895190Y-103548666D01*
X145895190Y-103239143D01*
M02*
