G04 #@! TF.FileFunction,Legend,Top*
%FSLAX46Y46*%
G04 Gerber Fmt 4.6, Leading zero omitted, Abs format (unit mm)*
G04 Created by KiCad (PCBNEW 4.0.6) date 12/10/17 20:55:37*
%MOMM*%
%LPD*%
G01*
G04 APERTURE LIST*
%ADD10C,0.100000*%
%ADD11C,0.120000*%
%ADD12C,0.150000*%
G04 APERTURE END LIST*
D10*
D11*
X154081000Y-114915000D02*
G75*
G03X154081000Y-114915000I-3840000J0D01*
G01*
X154041000Y-114915000D02*
X146441000Y-114915000D01*
X154041000Y-114955000D02*
X146441000Y-114955000D01*
X154041000Y-114995000D02*
X146441000Y-114995000D01*
X154040000Y-115035000D02*
X146442000Y-115035000D01*
X154038000Y-115075000D02*
X146444000Y-115075000D01*
X154036000Y-115115000D02*
X146446000Y-115115000D01*
X154034000Y-115155000D02*
X146448000Y-115155000D01*
X154031000Y-115195000D02*
X151221000Y-115195000D01*
X149261000Y-115195000D02*
X146451000Y-115195000D01*
X154028000Y-115235000D02*
X151221000Y-115235000D01*
X149261000Y-115235000D02*
X146454000Y-115235000D01*
X154025000Y-115275000D02*
X151221000Y-115275000D01*
X149261000Y-115275000D02*
X146457000Y-115275000D01*
X154021000Y-115315000D02*
X151221000Y-115315000D01*
X149261000Y-115315000D02*
X146461000Y-115315000D01*
X154016000Y-115355000D02*
X151221000Y-115355000D01*
X149261000Y-115355000D02*
X146466000Y-115355000D01*
X154011000Y-115395000D02*
X151221000Y-115395000D01*
X149261000Y-115395000D02*
X146471000Y-115395000D01*
X154006000Y-115435000D02*
X151221000Y-115435000D01*
X149261000Y-115435000D02*
X146476000Y-115435000D01*
X154000000Y-115475000D02*
X151221000Y-115475000D01*
X149261000Y-115475000D02*
X146482000Y-115475000D01*
X153994000Y-115515000D02*
X151221000Y-115515000D01*
X149261000Y-115515000D02*
X146488000Y-115515000D01*
X153988000Y-115555000D02*
X151221000Y-115555000D01*
X149261000Y-115555000D02*
X146494000Y-115555000D01*
X153981000Y-115595000D02*
X151221000Y-115595000D01*
X149261000Y-115595000D02*
X146501000Y-115595000D01*
X153973000Y-115636000D02*
X151221000Y-115636000D01*
X149261000Y-115636000D02*
X146509000Y-115636000D01*
X153966000Y-115676000D02*
X151221000Y-115676000D01*
X149261000Y-115676000D02*
X146516000Y-115676000D01*
X153957000Y-115716000D02*
X151221000Y-115716000D01*
X149261000Y-115716000D02*
X146525000Y-115716000D01*
X153948000Y-115756000D02*
X151221000Y-115756000D01*
X149261000Y-115756000D02*
X146534000Y-115756000D01*
X153939000Y-115796000D02*
X151221000Y-115796000D01*
X149261000Y-115796000D02*
X146543000Y-115796000D01*
X153930000Y-115836000D02*
X151221000Y-115836000D01*
X149261000Y-115836000D02*
X146552000Y-115836000D01*
X153920000Y-115876000D02*
X151221000Y-115876000D01*
X149261000Y-115876000D02*
X146562000Y-115876000D01*
X153909000Y-115916000D02*
X151221000Y-115916000D01*
X149261000Y-115916000D02*
X146573000Y-115916000D01*
X153898000Y-115956000D02*
X151221000Y-115956000D01*
X149261000Y-115956000D02*
X146584000Y-115956000D01*
X153886000Y-115996000D02*
X151221000Y-115996000D01*
X149261000Y-115996000D02*
X146596000Y-115996000D01*
X153875000Y-116036000D02*
X151221000Y-116036000D01*
X149261000Y-116036000D02*
X146607000Y-116036000D01*
X153862000Y-116076000D02*
X151221000Y-116076000D01*
X149261000Y-116076000D02*
X146620000Y-116076000D01*
X153849000Y-116116000D02*
X151221000Y-116116000D01*
X149261000Y-116116000D02*
X146633000Y-116116000D01*
X153836000Y-116156000D02*
X151221000Y-116156000D01*
X149261000Y-116156000D02*
X146646000Y-116156000D01*
X153822000Y-116196000D02*
X151221000Y-116196000D01*
X149261000Y-116196000D02*
X146660000Y-116196000D01*
X153807000Y-116236000D02*
X151221000Y-116236000D01*
X149261000Y-116236000D02*
X146675000Y-116236000D01*
X153793000Y-116276000D02*
X151221000Y-116276000D01*
X149261000Y-116276000D02*
X146689000Y-116276000D01*
X153777000Y-116316000D02*
X151221000Y-116316000D01*
X149261000Y-116316000D02*
X146705000Y-116316000D01*
X153761000Y-116356000D02*
X151221000Y-116356000D01*
X149261000Y-116356000D02*
X146721000Y-116356000D01*
X153745000Y-116396000D02*
X151221000Y-116396000D01*
X149261000Y-116396000D02*
X146737000Y-116396000D01*
X153728000Y-116436000D02*
X151221000Y-116436000D01*
X149261000Y-116436000D02*
X146754000Y-116436000D01*
X153710000Y-116476000D02*
X151221000Y-116476000D01*
X149261000Y-116476000D02*
X146772000Y-116476000D01*
X153692000Y-116516000D02*
X151221000Y-116516000D01*
X149261000Y-116516000D02*
X146790000Y-116516000D01*
X153674000Y-116556000D02*
X151221000Y-116556000D01*
X149261000Y-116556000D02*
X146808000Y-116556000D01*
X153654000Y-116596000D02*
X151221000Y-116596000D01*
X149261000Y-116596000D02*
X146828000Y-116596000D01*
X153635000Y-116636000D02*
X151221000Y-116636000D01*
X149261000Y-116636000D02*
X146847000Y-116636000D01*
X153614000Y-116676000D02*
X151221000Y-116676000D01*
X149261000Y-116676000D02*
X146868000Y-116676000D01*
X153593000Y-116716000D02*
X151221000Y-116716000D01*
X149261000Y-116716000D02*
X146889000Y-116716000D01*
X153572000Y-116756000D02*
X151221000Y-116756000D01*
X149261000Y-116756000D02*
X146910000Y-116756000D01*
X153550000Y-116796000D02*
X151221000Y-116796000D01*
X149261000Y-116796000D02*
X146932000Y-116796000D01*
X153527000Y-116836000D02*
X151221000Y-116836000D01*
X149261000Y-116836000D02*
X146955000Y-116836000D01*
X153504000Y-116876000D02*
X151221000Y-116876000D01*
X149261000Y-116876000D02*
X146978000Y-116876000D01*
X153480000Y-116916000D02*
X151221000Y-116916000D01*
X149261000Y-116916000D02*
X147002000Y-116916000D01*
X153455000Y-116956000D02*
X151221000Y-116956000D01*
X149261000Y-116956000D02*
X147027000Y-116956000D01*
X153429000Y-116996000D02*
X151221000Y-116996000D01*
X149261000Y-116996000D02*
X147053000Y-116996000D01*
X153403000Y-117036000D02*
X151221000Y-117036000D01*
X149261000Y-117036000D02*
X147079000Y-117036000D01*
X153376000Y-117076000D02*
X151221000Y-117076000D01*
X149261000Y-117076000D02*
X147106000Y-117076000D01*
X153349000Y-117116000D02*
X151221000Y-117116000D01*
X149261000Y-117116000D02*
X147133000Y-117116000D01*
X153320000Y-117156000D02*
X147162000Y-117156000D01*
X153291000Y-117196000D02*
X147191000Y-117196000D01*
X153261000Y-117236000D02*
X147221000Y-117236000D01*
X153231000Y-117276000D02*
X147251000Y-117276000D01*
X153199000Y-117316000D02*
X147283000Y-117316000D01*
X153167000Y-117356000D02*
X147315000Y-117356000D01*
X153133000Y-117396000D02*
X147349000Y-117396000D01*
X153099000Y-117436000D02*
X147383000Y-117436000D01*
X153064000Y-117476000D02*
X147418000Y-117476000D01*
X153027000Y-117516000D02*
X147455000Y-117516000D01*
X152990000Y-117556000D02*
X147492000Y-117556000D01*
X152952000Y-117596000D02*
X147530000Y-117596000D01*
X152912000Y-117636000D02*
X147570000Y-117636000D01*
X152871000Y-117676000D02*
X147611000Y-117676000D01*
X152829000Y-117716000D02*
X147653000Y-117716000D01*
X152786000Y-117756000D02*
X147696000Y-117756000D01*
X152741000Y-117796000D02*
X147741000Y-117796000D01*
X152695000Y-117836000D02*
X147787000Y-117836000D01*
X152648000Y-117876000D02*
X147834000Y-117876000D01*
X152598000Y-117916000D02*
X147884000Y-117916000D01*
X152548000Y-117956000D02*
X147934000Y-117956000D01*
X152495000Y-117996000D02*
X147987000Y-117996000D01*
X152440000Y-118036000D02*
X148042000Y-118036000D01*
X152383000Y-118076000D02*
X148099000Y-118076000D01*
X152324000Y-118116000D02*
X148158000Y-118116000D01*
X152263000Y-118156000D02*
X148219000Y-118156000D01*
X152198000Y-118196000D02*
X148284000Y-118196000D01*
X152131000Y-118236000D02*
X148351000Y-118236000D01*
X152061000Y-118276000D02*
X148421000Y-118276000D01*
X151986000Y-118316000D02*
X148496000Y-118316000D01*
X151908000Y-118356000D02*
X148574000Y-118356000D01*
X151825000Y-118396000D02*
X148657000Y-118396000D01*
X151736000Y-118436000D02*
X148746000Y-118436000D01*
X151641000Y-118476000D02*
X148841000Y-118476000D01*
X151538000Y-118516000D02*
X148944000Y-118516000D01*
X151425000Y-118556000D02*
X149057000Y-118556000D01*
X151298000Y-118596000D02*
X149184000Y-118596000D01*
X151154000Y-118636000D02*
X149328000Y-118636000D01*
X150981000Y-118676000D02*
X149501000Y-118676000D01*
X150754000Y-118716000D02*
X149728000Y-118716000D01*
X150241000Y-111465000D02*
X150241000Y-112665000D01*
X150891000Y-112065000D02*
X149591000Y-112065000D01*
X145572000Y-114915000D02*
G75*
G03X145572000Y-114915000I-3840000J0D01*
G01*
X145532000Y-114915000D02*
X137932000Y-114915000D01*
X145532000Y-114955000D02*
X137932000Y-114955000D01*
X145532000Y-114995000D02*
X137932000Y-114995000D01*
X145531000Y-115035000D02*
X137933000Y-115035000D01*
X145529000Y-115075000D02*
X137935000Y-115075000D01*
X145527000Y-115115000D02*
X137937000Y-115115000D01*
X145525000Y-115155000D02*
X137939000Y-115155000D01*
X145522000Y-115195000D02*
X142712000Y-115195000D01*
X140752000Y-115195000D02*
X137942000Y-115195000D01*
X145519000Y-115235000D02*
X142712000Y-115235000D01*
X140752000Y-115235000D02*
X137945000Y-115235000D01*
X145516000Y-115275000D02*
X142712000Y-115275000D01*
X140752000Y-115275000D02*
X137948000Y-115275000D01*
X145512000Y-115315000D02*
X142712000Y-115315000D01*
X140752000Y-115315000D02*
X137952000Y-115315000D01*
X145507000Y-115355000D02*
X142712000Y-115355000D01*
X140752000Y-115355000D02*
X137957000Y-115355000D01*
X145502000Y-115395000D02*
X142712000Y-115395000D01*
X140752000Y-115395000D02*
X137962000Y-115395000D01*
X145497000Y-115435000D02*
X142712000Y-115435000D01*
X140752000Y-115435000D02*
X137967000Y-115435000D01*
X145491000Y-115475000D02*
X142712000Y-115475000D01*
X140752000Y-115475000D02*
X137973000Y-115475000D01*
X145485000Y-115515000D02*
X142712000Y-115515000D01*
X140752000Y-115515000D02*
X137979000Y-115515000D01*
X145479000Y-115555000D02*
X142712000Y-115555000D01*
X140752000Y-115555000D02*
X137985000Y-115555000D01*
X145472000Y-115595000D02*
X142712000Y-115595000D01*
X140752000Y-115595000D02*
X137992000Y-115595000D01*
X145464000Y-115636000D02*
X142712000Y-115636000D01*
X140752000Y-115636000D02*
X138000000Y-115636000D01*
X145457000Y-115676000D02*
X142712000Y-115676000D01*
X140752000Y-115676000D02*
X138007000Y-115676000D01*
X145448000Y-115716000D02*
X142712000Y-115716000D01*
X140752000Y-115716000D02*
X138016000Y-115716000D01*
X145439000Y-115756000D02*
X142712000Y-115756000D01*
X140752000Y-115756000D02*
X138025000Y-115756000D01*
X145430000Y-115796000D02*
X142712000Y-115796000D01*
X140752000Y-115796000D02*
X138034000Y-115796000D01*
X145421000Y-115836000D02*
X142712000Y-115836000D01*
X140752000Y-115836000D02*
X138043000Y-115836000D01*
X145411000Y-115876000D02*
X142712000Y-115876000D01*
X140752000Y-115876000D02*
X138053000Y-115876000D01*
X145400000Y-115916000D02*
X142712000Y-115916000D01*
X140752000Y-115916000D02*
X138064000Y-115916000D01*
X145389000Y-115956000D02*
X142712000Y-115956000D01*
X140752000Y-115956000D02*
X138075000Y-115956000D01*
X145377000Y-115996000D02*
X142712000Y-115996000D01*
X140752000Y-115996000D02*
X138087000Y-115996000D01*
X145366000Y-116036000D02*
X142712000Y-116036000D01*
X140752000Y-116036000D02*
X138098000Y-116036000D01*
X145353000Y-116076000D02*
X142712000Y-116076000D01*
X140752000Y-116076000D02*
X138111000Y-116076000D01*
X145340000Y-116116000D02*
X142712000Y-116116000D01*
X140752000Y-116116000D02*
X138124000Y-116116000D01*
X145327000Y-116156000D02*
X142712000Y-116156000D01*
X140752000Y-116156000D02*
X138137000Y-116156000D01*
X145313000Y-116196000D02*
X142712000Y-116196000D01*
X140752000Y-116196000D02*
X138151000Y-116196000D01*
X145298000Y-116236000D02*
X142712000Y-116236000D01*
X140752000Y-116236000D02*
X138166000Y-116236000D01*
X145284000Y-116276000D02*
X142712000Y-116276000D01*
X140752000Y-116276000D02*
X138180000Y-116276000D01*
X145268000Y-116316000D02*
X142712000Y-116316000D01*
X140752000Y-116316000D02*
X138196000Y-116316000D01*
X145252000Y-116356000D02*
X142712000Y-116356000D01*
X140752000Y-116356000D02*
X138212000Y-116356000D01*
X145236000Y-116396000D02*
X142712000Y-116396000D01*
X140752000Y-116396000D02*
X138228000Y-116396000D01*
X145219000Y-116436000D02*
X142712000Y-116436000D01*
X140752000Y-116436000D02*
X138245000Y-116436000D01*
X145201000Y-116476000D02*
X142712000Y-116476000D01*
X140752000Y-116476000D02*
X138263000Y-116476000D01*
X145183000Y-116516000D02*
X142712000Y-116516000D01*
X140752000Y-116516000D02*
X138281000Y-116516000D01*
X145165000Y-116556000D02*
X142712000Y-116556000D01*
X140752000Y-116556000D02*
X138299000Y-116556000D01*
X145145000Y-116596000D02*
X142712000Y-116596000D01*
X140752000Y-116596000D02*
X138319000Y-116596000D01*
X145126000Y-116636000D02*
X142712000Y-116636000D01*
X140752000Y-116636000D02*
X138338000Y-116636000D01*
X145105000Y-116676000D02*
X142712000Y-116676000D01*
X140752000Y-116676000D02*
X138359000Y-116676000D01*
X145084000Y-116716000D02*
X142712000Y-116716000D01*
X140752000Y-116716000D02*
X138380000Y-116716000D01*
X145063000Y-116756000D02*
X142712000Y-116756000D01*
X140752000Y-116756000D02*
X138401000Y-116756000D01*
X145041000Y-116796000D02*
X142712000Y-116796000D01*
X140752000Y-116796000D02*
X138423000Y-116796000D01*
X145018000Y-116836000D02*
X142712000Y-116836000D01*
X140752000Y-116836000D02*
X138446000Y-116836000D01*
X144995000Y-116876000D02*
X142712000Y-116876000D01*
X140752000Y-116876000D02*
X138469000Y-116876000D01*
X144971000Y-116916000D02*
X142712000Y-116916000D01*
X140752000Y-116916000D02*
X138493000Y-116916000D01*
X144946000Y-116956000D02*
X142712000Y-116956000D01*
X140752000Y-116956000D02*
X138518000Y-116956000D01*
X144920000Y-116996000D02*
X142712000Y-116996000D01*
X140752000Y-116996000D02*
X138544000Y-116996000D01*
X144894000Y-117036000D02*
X142712000Y-117036000D01*
X140752000Y-117036000D02*
X138570000Y-117036000D01*
X144867000Y-117076000D02*
X142712000Y-117076000D01*
X140752000Y-117076000D02*
X138597000Y-117076000D01*
X144840000Y-117116000D02*
X142712000Y-117116000D01*
X140752000Y-117116000D02*
X138624000Y-117116000D01*
X144811000Y-117156000D02*
X138653000Y-117156000D01*
X144782000Y-117196000D02*
X138682000Y-117196000D01*
X144752000Y-117236000D02*
X138712000Y-117236000D01*
X144722000Y-117276000D02*
X138742000Y-117276000D01*
X144690000Y-117316000D02*
X138774000Y-117316000D01*
X144658000Y-117356000D02*
X138806000Y-117356000D01*
X144624000Y-117396000D02*
X138840000Y-117396000D01*
X144590000Y-117436000D02*
X138874000Y-117436000D01*
X144555000Y-117476000D02*
X138909000Y-117476000D01*
X144518000Y-117516000D02*
X138946000Y-117516000D01*
X144481000Y-117556000D02*
X138983000Y-117556000D01*
X144443000Y-117596000D02*
X139021000Y-117596000D01*
X144403000Y-117636000D02*
X139061000Y-117636000D01*
X144362000Y-117676000D02*
X139102000Y-117676000D01*
X144320000Y-117716000D02*
X139144000Y-117716000D01*
X144277000Y-117756000D02*
X139187000Y-117756000D01*
X144232000Y-117796000D02*
X139232000Y-117796000D01*
X144186000Y-117836000D02*
X139278000Y-117836000D01*
X144139000Y-117876000D02*
X139325000Y-117876000D01*
X144089000Y-117916000D02*
X139375000Y-117916000D01*
X144039000Y-117956000D02*
X139425000Y-117956000D01*
X143986000Y-117996000D02*
X139478000Y-117996000D01*
X143931000Y-118036000D02*
X139533000Y-118036000D01*
X143874000Y-118076000D02*
X139590000Y-118076000D01*
X143815000Y-118116000D02*
X139649000Y-118116000D01*
X143754000Y-118156000D02*
X139710000Y-118156000D01*
X143689000Y-118196000D02*
X139775000Y-118196000D01*
X143622000Y-118236000D02*
X139842000Y-118236000D01*
X143552000Y-118276000D02*
X139912000Y-118276000D01*
X143477000Y-118316000D02*
X139987000Y-118316000D01*
X143399000Y-118356000D02*
X140065000Y-118356000D01*
X143316000Y-118396000D02*
X140148000Y-118396000D01*
X143227000Y-118436000D02*
X140237000Y-118436000D01*
X143132000Y-118476000D02*
X140332000Y-118476000D01*
X143029000Y-118516000D02*
X140435000Y-118516000D01*
X142916000Y-118556000D02*
X140548000Y-118556000D01*
X142789000Y-118596000D02*
X140675000Y-118596000D01*
X142645000Y-118636000D02*
X140819000Y-118636000D01*
X142472000Y-118676000D02*
X140992000Y-118676000D01*
X142245000Y-118716000D02*
X141219000Y-118716000D01*
X141732000Y-111465000D02*
X141732000Y-112665000D01*
X142382000Y-112065000D02*
X141082000Y-112065000D01*
X146419000Y-107458000D02*
X146419000Y-110658000D01*
X144919000Y-110658000D02*
X144919000Y-107458000D01*
X144919000Y-110658000D02*
X146419000Y-110658000D01*
D12*
X133604000Y-118999000D02*
X137414000Y-118999000D01*
X137414000Y-118999000D02*
X137414000Y-108839000D01*
X137414000Y-108839000D02*
X131064000Y-108839000D01*
X131064000Y-108839000D02*
X129794000Y-108839000D01*
X129794000Y-108839000D02*
X129794000Y-118999000D01*
X129794000Y-118999000D02*
X133604000Y-118999000D01*
D11*
X153857000Y-100016000D02*
X151197000Y-100016000D01*
X153857000Y-107696000D02*
X153857000Y-100016000D01*
X151197000Y-107696000D02*
X151197000Y-100016000D01*
X153857000Y-107696000D02*
X151197000Y-107696000D01*
X153857000Y-108966000D02*
X153857000Y-110296000D01*
X153857000Y-110296000D02*
X152527000Y-110296000D01*
X147514000Y-110296000D02*
X150174000Y-110296000D01*
X147514000Y-110236000D02*
X147514000Y-110296000D01*
X150174000Y-110236000D02*
X150174000Y-110296000D01*
X147514000Y-110236000D02*
X150174000Y-110236000D01*
X147514000Y-108966000D02*
X147514000Y-107636000D01*
X147514000Y-107636000D02*
X148844000Y-107636000D01*
D12*
X133604000Y-98425000D02*
X129794000Y-98425000D01*
X129794000Y-98425000D02*
X129794000Y-108585000D01*
X129794000Y-108585000D02*
X136144000Y-108585000D01*
X136144000Y-108585000D02*
X137414000Y-108585000D01*
X137414000Y-108585000D02*
X137414000Y-98425000D01*
X137414000Y-98425000D02*
X133604000Y-98425000D01*
D11*
X137715000Y-110657000D02*
X137715000Y-100417000D01*
X142356000Y-110657000D02*
X142356000Y-100417000D01*
X137715000Y-110657000D02*
X142356000Y-110657000D01*
X137715000Y-100417000D02*
X142356000Y-100417000D01*
X139225000Y-110657000D02*
X139225000Y-100417000D01*
X137715000Y-107387000D02*
X139225000Y-107387000D01*
X137715000Y-103686000D02*
X139225000Y-103686000D01*
X142884000Y-109058000D02*
X142884000Y-107858000D01*
X144644000Y-107858000D02*
X144644000Y-109058000D01*
X146549000Y-103032000D02*
X146549000Y-104232000D01*
X144789000Y-104232000D02*
X144789000Y-103032000D01*
M02*
