G04 #@! TF.FileFunction,Legend,Bot*
%FSLAX46Y46*%
G04 Gerber Fmt 4.6, Leading zero omitted, Abs format (unit mm)*
G04 Created by KiCad (PCBNEW 4.0.5) date 02/12/17 15:01:25*
%MOMM*%
%LPD*%
G01*
G04 APERTURE LIST*
%ADD10C,0.100000*%
%ADD11C,0.150000*%
%ADD12R,4.400000X4.400000*%
%ADD13R,5.900000X5.900000*%
G04 APERTURE END LIST*
D10*
D11*
X129540000Y-68580000D02*
X129540000Y-87630000D01*
X129540000Y-87630000D02*
X104140000Y-87630000D01*
X104140000Y-87630000D02*
X104140000Y-68580000D01*
X104140000Y-68580000D02*
X129540000Y-68580000D01*
X132865714Y-86288571D02*
X132722857Y-86336190D01*
X132675238Y-86383810D01*
X132627619Y-86479048D01*
X132627619Y-86621905D01*
X132675238Y-86717143D01*
X132722857Y-86764762D01*
X132818095Y-86812381D01*
X133199048Y-86812381D01*
X133199048Y-85812381D01*
X132865714Y-85812381D01*
X132770476Y-85860000D01*
X132722857Y-85907619D01*
X132675238Y-86002857D01*
X132675238Y-86098095D01*
X132722857Y-86193333D01*
X132770476Y-86240952D01*
X132865714Y-86288571D01*
X133199048Y-86288571D01*
X132341905Y-85812381D02*
X131770476Y-85812381D01*
X132056191Y-86812381D02*
X132056191Y-85812381D01*
X130913333Y-86812381D02*
X131484762Y-86812381D01*
X131199048Y-86812381D02*
X131199048Y-85812381D01*
X131294286Y-85955238D01*
X131389524Y-86050476D01*
X131484762Y-86098095D01*
%LPC*%
D12*
X116840000Y-77470000D03*
D13*
X104040000Y-77470000D03*
X129640000Y-77470000D03*
M02*
