G04 #@! TF.FileFunction,Legend,Top*
%FSLAX46Y46*%
G04 Gerber Fmt 4.6, Leading zero omitted, Abs format (unit mm)*
G04 Created by KiCad (PCBNEW 4.0.5) date 02/12/17 15:01:25*
%MOMM*%
%LPD*%
G01*
G04 APERTURE LIST*
%ADD10C,0.100000*%
%ADD11C,0.300000*%
%ADD12C,0.120000*%
%ADD13C,0.150000*%
%ADD14R,2.400000X2.000000*%
%ADD15R,1.600000X1.600000*%
%ADD16R,1.900000X1.700000*%
%ADD17R,1.700000X1.900000*%
%ADD18R,1.950000X1.000000*%
G04 APERTURE END LIST*
D10*
D11*
X109173428Y-65539000D02*
X109030571Y-65467571D01*
X108816285Y-65467571D01*
X108602000Y-65539000D01*
X108459142Y-65681857D01*
X108387714Y-65824714D01*
X108316285Y-66110429D01*
X108316285Y-66324714D01*
X108387714Y-66610429D01*
X108459142Y-66753286D01*
X108602000Y-66896143D01*
X108816285Y-66967571D01*
X108959142Y-66967571D01*
X109173428Y-66896143D01*
X109244857Y-66824714D01*
X109244857Y-66324714D01*
X108959142Y-66324714D01*
X110459142Y-66896143D02*
X110316285Y-66967571D01*
X110030571Y-66967571D01*
X109887714Y-66896143D01*
X109816285Y-66753286D01*
X109816285Y-66181857D01*
X109887714Y-66039000D01*
X110030571Y-65967571D01*
X110316285Y-65967571D01*
X110459142Y-66039000D01*
X110530571Y-66181857D01*
X110530571Y-66324714D01*
X109816285Y-66467571D01*
X110959142Y-65967571D02*
X111530571Y-65967571D01*
X111173428Y-65467571D02*
X111173428Y-66753286D01*
X111244856Y-66896143D01*
X111387714Y-66967571D01*
X111530571Y-66967571D01*
X111816285Y-65967571D02*
X112387714Y-65967571D01*
X112030571Y-65467571D02*
X112030571Y-66753286D01*
X112101999Y-66896143D01*
X112244857Y-66967571D01*
X112387714Y-66967571D01*
X112887714Y-66967571D02*
X112887714Y-65967571D01*
X112887714Y-65467571D02*
X112816285Y-65539000D01*
X112887714Y-65610429D01*
X112959142Y-65539000D01*
X112887714Y-65467571D01*
X112887714Y-65610429D01*
X113602000Y-65967571D02*
X113602000Y-66967571D01*
X113602000Y-66110429D02*
X113673428Y-66039000D01*
X113816286Y-65967571D01*
X114030571Y-65967571D01*
X114173428Y-66039000D01*
X114244857Y-66181857D01*
X114244857Y-66967571D01*
X115602000Y-65967571D02*
X115602000Y-67181857D01*
X115530571Y-67324714D01*
X115459143Y-67396143D01*
X115316286Y-67467571D01*
X115102000Y-67467571D01*
X114959143Y-67396143D01*
X115602000Y-66896143D02*
X115459143Y-66967571D01*
X115173429Y-66967571D01*
X115030571Y-66896143D01*
X114959143Y-66824714D01*
X114887714Y-66681857D01*
X114887714Y-66253286D01*
X114959143Y-66110429D01*
X115030571Y-66039000D01*
X115173429Y-65967571D01*
X115459143Y-65967571D01*
X115602000Y-66039000D01*
X117244857Y-65967571D02*
X117816286Y-65967571D01*
X117459143Y-65467571D02*
X117459143Y-66753286D01*
X117530571Y-66896143D01*
X117673429Y-66967571D01*
X117816286Y-66967571D01*
X118530572Y-66967571D02*
X118387714Y-66896143D01*
X118316286Y-66824714D01*
X118244857Y-66681857D01*
X118244857Y-66253286D01*
X118316286Y-66110429D01*
X118387714Y-66039000D01*
X118530572Y-65967571D01*
X118744857Y-65967571D01*
X118887714Y-66039000D01*
X118959143Y-66110429D01*
X119030572Y-66253286D01*
X119030572Y-66681857D01*
X118959143Y-66824714D01*
X118887714Y-66896143D01*
X118744857Y-66967571D01*
X118530572Y-66967571D01*
X121316286Y-66181857D02*
X121530572Y-66253286D01*
X121602000Y-66324714D01*
X121673429Y-66467571D01*
X121673429Y-66681857D01*
X121602000Y-66824714D01*
X121530572Y-66896143D01*
X121387714Y-66967571D01*
X120816286Y-66967571D01*
X120816286Y-65467571D01*
X121316286Y-65467571D01*
X121459143Y-65539000D01*
X121530572Y-65610429D01*
X121602000Y-65753286D01*
X121602000Y-65896143D01*
X121530572Y-66039000D01*
X121459143Y-66110429D01*
X121316286Y-66181857D01*
X120816286Y-66181857D01*
X122530572Y-66967571D02*
X122387714Y-66896143D01*
X122316286Y-66753286D01*
X122316286Y-65467571D01*
X123102000Y-66967571D02*
X123102000Y-65967571D01*
X123102000Y-65467571D02*
X123030571Y-65539000D01*
X123102000Y-65610429D01*
X123173428Y-65539000D01*
X123102000Y-65467571D01*
X123102000Y-65610429D01*
X123816286Y-65967571D02*
X123816286Y-66967571D01*
X123816286Y-66110429D02*
X123887714Y-66039000D01*
X124030572Y-65967571D01*
X124244857Y-65967571D01*
X124387714Y-66039000D01*
X124459143Y-66181857D01*
X124459143Y-66967571D01*
X125173429Y-66967571D02*
X125173429Y-65467571D01*
X125316286Y-66396143D02*
X125744857Y-66967571D01*
X125744857Y-65967571D02*
X125173429Y-66539000D01*
X126244858Y-65967571D02*
X126602001Y-66967571D01*
X126959143Y-65967571D02*
X126602001Y-66967571D01*
X126459143Y-67324714D01*
X126387715Y-67396143D01*
X126244858Y-67467571D01*
X109494858Y-69517571D02*
X109494858Y-68017571D01*
X109994858Y-69089000D01*
X110494858Y-68017571D01*
X110494858Y-69517571D01*
X111852001Y-69517571D02*
X111852001Y-68731857D01*
X111780572Y-68589000D01*
X111637715Y-68517571D01*
X111352001Y-68517571D01*
X111209144Y-68589000D01*
X111852001Y-69446143D02*
X111709144Y-69517571D01*
X111352001Y-69517571D01*
X111209144Y-69446143D01*
X111137715Y-69303286D01*
X111137715Y-69160429D01*
X111209144Y-69017571D01*
X111352001Y-68946143D01*
X111709144Y-68946143D01*
X111852001Y-68874714D01*
X113209144Y-69517571D02*
X113209144Y-68017571D01*
X113209144Y-69446143D02*
X113066287Y-69517571D01*
X112780573Y-69517571D01*
X112637715Y-69446143D01*
X112566287Y-69374714D01*
X112494858Y-69231857D01*
X112494858Y-68803286D01*
X112566287Y-68660429D01*
X112637715Y-68589000D01*
X112780573Y-68517571D01*
X113066287Y-68517571D01*
X113209144Y-68589000D01*
X114494858Y-69446143D02*
X114352001Y-69517571D01*
X114066287Y-69517571D01*
X113923430Y-69446143D01*
X113852001Y-69303286D01*
X113852001Y-68731857D01*
X113923430Y-68589000D01*
X114066287Y-68517571D01*
X114352001Y-68517571D01*
X114494858Y-68589000D01*
X114566287Y-68731857D01*
X114566287Y-68874714D01*
X113852001Y-69017571D01*
X116352001Y-69517571D02*
X116352001Y-68017571D01*
X116352001Y-68589000D02*
X116494858Y-68517571D01*
X116780572Y-68517571D01*
X116923429Y-68589000D01*
X116994858Y-68660429D01*
X117066287Y-68803286D01*
X117066287Y-69231857D01*
X116994858Y-69374714D01*
X116923429Y-69446143D01*
X116780572Y-69517571D01*
X116494858Y-69517571D01*
X116352001Y-69446143D01*
X117566287Y-68517571D02*
X117923430Y-69517571D01*
X118280572Y-68517571D02*
X117923430Y-69517571D01*
X117780572Y-69874714D01*
X117709144Y-69946143D01*
X117566287Y-70017571D01*
X119780572Y-68017571D02*
X120280572Y-69517571D01*
X120780572Y-68017571D01*
X121280572Y-69517571D02*
X121280572Y-68517571D01*
X121280572Y-68017571D02*
X121209143Y-68089000D01*
X121280572Y-68160429D01*
X121352000Y-68089000D01*
X121280572Y-68017571D01*
X121280572Y-68160429D01*
X122637715Y-69446143D02*
X122494858Y-69517571D01*
X122209144Y-69517571D01*
X122066286Y-69446143D01*
X121994858Y-69374714D01*
X121923429Y-69231857D01*
X121923429Y-68803286D01*
X121994858Y-68660429D01*
X122066286Y-68589000D01*
X122209144Y-68517571D01*
X122494858Y-68517571D01*
X122637715Y-68589000D01*
X123066286Y-68517571D02*
X123637715Y-68517571D01*
X123280572Y-68017571D02*
X123280572Y-69303286D01*
X123352000Y-69446143D01*
X123494858Y-69517571D01*
X123637715Y-69517571D01*
X124352001Y-69517571D02*
X124209143Y-69446143D01*
X124137715Y-69374714D01*
X124066286Y-69231857D01*
X124066286Y-68803286D01*
X124137715Y-68660429D01*
X124209143Y-68589000D01*
X124352001Y-68517571D01*
X124566286Y-68517571D01*
X124709143Y-68589000D01*
X124780572Y-68660429D01*
X124852001Y-68803286D01*
X124852001Y-69231857D01*
X124780572Y-69374714D01*
X124709143Y-69446143D01*
X124566286Y-69517571D01*
X124352001Y-69517571D01*
X125494858Y-69517571D02*
X125494858Y-68517571D01*
X125494858Y-68803286D02*
X125566286Y-68660429D01*
X125637715Y-68589000D01*
X125780572Y-68517571D01*
X125923429Y-68517571D01*
D12*
X117840000Y-84065000D02*
X115840000Y-84065000D01*
X115840000Y-86115000D02*
X117840000Y-86115000D01*
X107250000Y-85620000D02*
X108650000Y-85620000D01*
X108650000Y-85620000D02*
X108650000Y-82820000D01*
X107250000Y-85620000D02*
X107250000Y-82820000D01*
D13*
X123860000Y-84215000D02*
X125060000Y-84215000D01*
X125060000Y-85965000D02*
X123860000Y-85965000D01*
X123585000Y-78070000D02*
X123585000Y-76870000D01*
X125335000Y-76870000D02*
X125335000Y-78070000D01*
X107075000Y-78070000D02*
X107075000Y-76870000D01*
X108825000Y-76870000D02*
X108825000Y-78070000D01*
X114765000Y-74895000D02*
X114765000Y-74945000D01*
X118915000Y-74895000D02*
X118915000Y-75040000D01*
X118915000Y-80045000D02*
X118915000Y-79900000D01*
X114765000Y-80045000D02*
X114765000Y-79900000D01*
X114765000Y-74895000D02*
X118915000Y-74895000D01*
X114765000Y-80045000D02*
X118915000Y-80045000D01*
X114765000Y-74945000D02*
X113365000Y-74945000D01*
X116673334Y-83147143D02*
X116625715Y-83194762D01*
X116482858Y-83242381D01*
X116387620Y-83242381D01*
X116244762Y-83194762D01*
X116149524Y-83099524D01*
X116101905Y-83004286D01*
X116054286Y-82813810D01*
X116054286Y-82670952D01*
X116101905Y-82480476D01*
X116149524Y-82385238D01*
X116244762Y-82290000D01*
X116387620Y-82242381D01*
X116482858Y-82242381D01*
X116625715Y-82290000D01*
X116673334Y-82337619D01*
X117625715Y-83242381D02*
X117054286Y-83242381D01*
X117340000Y-83242381D02*
X117340000Y-82242381D01*
X117244762Y-82385238D01*
X117149524Y-82480476D01*
X117054286Y-82528095D01*
X106952381Y-84558095D02*
X105952381Y-84558095D01*
X105952381Y-84320000D01*
X106000000Y-84177142D01*
X106095238Y-84081904D01*
X106190476Y-84034285D01*
X106380952Y-83986666D01*
X106523810Y-83986666D01*
X106714286Y-84034285D01*
X106809524Y-84081904D01*
X106904762Y-84177142D01*
X106952381Y-84320000D01*
X106952381Y-84558095D01*
X106952381Y-83034285D02*
X106952381Y-83605714D01*
X106952381Y-83320000D02*
X105952381Y-83320000D01*
X106095238Y-83415238D01*
X106190476Y-83510476D01*
X106238095Y-83605714D01*
X124293334Y-87642381D02*
X123960000Y-87166190D01*
X123721905Y-87642381D02*
X123721905Y-86642381D01*
X124102858Y-86642381D01*
X124198096Y-86690000D01*
X124245715Y-86737619D01*
X124293334Y-86832857D01*
X124293334Y-86975714D01*
X124245715Y-87070952D01*
X124198096Y-87118571D01*
X124102858Y-87166190D01*
X123721905Y-87166190D01*
X125245715Y-87642381D02*
X124674286Y-87642381D01*
X124960000Y-87642381D02*
X124960000Y-86642381D01*
X124864762Y-86785238D01*
X124769524Y-86880476D01*
X124674286Y-86928095D01*
X127012381Y-77636666D02*
X126536190Y-77970000D01*
X127012381Y-78208095D02*
X126012381Y-78208095D01*
X126012381Y-77827142D01*
X126060000Y-77731904D01*
X126107619Y-77684285D01*
X126202857Y-77636666D01*
X126345714Y-77636666D01*
X126440952Y-77684285D01*
X126488571Y-77731904D01*
X126536190Y-77827142D01*
X126536190Y-78208095D01*
X126107619Y-77255714D02*
X126060000Y-77208095D01*
X126012381Y-77112857D01*
X126012381Y-76874761D01*
X126060000Y-76779523D01*
X126107619Y-76731904D01*
X126202857Y-76684285D01*
X126298095Y-76684285D01*
X126440952Y-76731904D01*
X127012381Y-77303333D01*
X127012381Y-76684285D01*
X110502381Y-77636666D02*
X110026190Y-77970000D01*
X110502381Y-78208095D02*
X109502381Y-78208095D01*
X109502381Y-77827142D01*
X109550000Y-77731904D01*
X109597619Y-77684285D01*
X109692857Y-77636666D01*
X109835714Y-77636666D01*
X109930952Y-77684285D01*
X109978571Y-77731904D01*
X110026190Y-77827142D01*
X110026190Y-78208095D01*
X109502381Y-77303333D02*
X109502381Y-76684285D01*
X109883333Y-77017619D01*
X109883333Y-76874761D01*
X109930952Y-76779523D01*
X109978571Y-76731904D01*
X110073810Y-76684285D01*
X110311905Y-76684285D01*
X110407143Y-76731904D01*
X110454762Y-76779523D01*
X110502381Y-76874761D01*
X110502381Y-77160476D01*
X110454762Y-77255714D01*
X110407143Y-77303333D01*
X116078095Y-73422381D02*
X116078095Y-74231905D01*
X116125714Y-74327143D01*
X116173333Y-74374762D01*
X116268571Y-74422381D01*
X116459048Y-74422381D01*
X116554286Y-74374762D01*
X116601905Y-74327143D01*
X116649524Y-74231905D01*
X116649524Y-73422381D01*
X117649524Y-74422381D02*
X117078095Y-74422381D01*
X117363809Y-74422381D02*
X117363809Y-73422381D01*
X117268571Y-73565238D01*
X117173333Y-73660476D01*
X117078095Y-73708095D01*
%LPC*%
D14*
X114840000Y-85090000D03*
X118840000Y-85090000D03*
D15*
X107950000Y-82720000D03*
X107950000Y-84920000D03*
D16*
X125810000Y-85090000D03*
X123110000Y-85090000D03*
D17*
X124460000Y-76120000D03*
X124460000Y-78820000D03*
X107950000Y-76120000D03*
X107950000Y-78820000D03*
D18*
X114140000Y-75565000D03*
X114140000Y-76835000D03*
X114140000Y-78105000D03*
X114140000Y-79375000D03*
X119540000Y-79375000D03*
X119540000Y-78105000D03*
X119540000Y-76835000D03*
X119540000Y-75565000D03*
M02*
