G04 #@! TF.FileFunction,Copper,L2,Bot,Signal*
%FSLAX46Y46*%
G04 Gerber Fmt 4.6, Leading zero omitted, Abs format (unit mm)*
G04 Created by KiCad (PCBNEW 4.0.5) date 02/12/17 15:01:25*
%MOMM*%
%LPD*%
G01*
G04 APERTURE LIST*
%ADD10C,0.100000*%
%ADD11R,4.000000X4.000000*%
%ADD12R,5.500000X5.500000*%
%ADD13C,0.600000*%
%ADD14C,0.250000*%
%ADD15C,0.254000*%
G04 APERTURE END LIST*
D10*
D11*
X116840000Y-77470000D03*
D12*
X104040000Y-77470000D03*
X129640000Y-77470000D03*
D13*
X114046000Y-74168000D03*
X122174000Y-75184000D03*
X127254000Y-83312000D03*
X112014000Y-80010000D03*
D14*
X114046000Y-79502000D02*
X114300000Y-79502000D01*
X114046000Y-74168000D02*
X116840000Y-76962000D01*
X116840000Y-77470000D02*
X116840000Y-76962000D01*
X127608000Y-75438000D02*
X129640000Y-77470000D01*
D15*
G36*
X135180000Y-92000000D02*
X98500000Y-92000000D01*
X98500000Y-77755750D01*
X100655000Y-77755750D01*
X100655000Y-80346310D01*
X100751673Y-80579699D01*
X100930302Y-80758327D01*
X101163691Y-80855000D01*
X103754250Y-80855000D01*
X103913000Y-80696250D01*
X103913000Y-77597000D01*
X104167000Y-77597000D01*
X104167000Y-80696250D01*
X104325750Y-80855000D01*
X106916309Y-80855000D01*
X107149698Y-80758327D01*
X107328327Y-80579699D01*
X107425000Y-80346310D01*
X107425000Y-77755750D01*
X107266250Y-77597000D01*
X104167000Y-77597000D01*
X103913000Y-77597000D01*
X100813750Y-77597000D01*
X100655000Y-77755750D01*
X98500000Y-77755750D01*
X98500000Y-74593690D01*
X100655000Y-74593690D01*
X100655000Y-77184250D01*
X100813750Y-77343000D01*
X103913000Y-77343000D01*
X103913000Y-74243750D01*
X104167000Y-74243750D01*
X104167000Y-77343000D01*
X107266250Y-77343000D01*
X107425000Y-77184250D01*
X107425000Y-74593690D01*
X107328327Y-74360301D01*
X107321193Y-74353167D01*
X113110838Y-74353167D01*
X113252883Y-74696943D01*
X113515673Y-74960192D01*
X113859201Y-75102838D01*
X113906077Y-75102879D01*
X114206140Y-75402942D01*
X114192560Y-75470000D01*
X114192560Y-78742000D01*
X114046000Y-78742000D01*
X113755161Y-78799852D01*
X113508599Y-78964599D01*
X113343852Y-79211161D01*
X113286000Y-79502000D01*
X113343852Y-79792839D01*
X113508599Y-80039401D01*
X113755161Y-80204148D01*
X114046000Y-80262000D01*
X114300000Y-80262000D01*
X114590839Y-80204148D01*
X114748376Y-80098886D01*
X114840000Y-80117440D01*
X118840000Y-80117440D01*
X119075317Y-80073162D01*
X119291441Y-79934090D01*
X119436431Y-79721890D01*
X119487440Y-79470000D01*
X119487440Y-77755750D01*
X126255000Y-77755750D01*
X126255000Y-80346310D01*
X126351673Y-80579699D01*
X126530302Y-80758327D01*
X126763691Y-80855000D01*
X129354250Y-80855000D01*
X129513000Y-80696250D01*
X129513000Y-77597000D01*
X129767000Y-77597000D01*
X129767000Y-80696250D01*
X129925750Y-80855000D01*
X132516309Y-80855000D01*
X132749698Y-80758327D01*
X132928327Y-80579699D01*
X133025000Y-80346310D01*
X133025000Y-77755750D01*
X132866250Y-77597000D01*
X129767000Y-77597000D01*
X129513000Y-77597000D01*
X126413750Y-77597000D01*
X126255000Y-77755750D01*
X119487440Y-77755750D01*
X119487440Y-75470000D01*
X119443162Y-75234683D01*
X119304090Y-75018559D01*
X119091890Y-74873569D01*
X118840000Y-74822560D01*
X115775362Y-74822560D01*
X115546492Y-74593690D01*
X126255000Y-74593690D01*
X126255000Y-77184250D01*
X126413750Y-77343000D01*
X129513000Y-77343000D01*
X129513000Y-74243750D01*
X129767000Y-74243750D01*
X129767000Y-77343000D01*
X132866250Y-77343000D01*
X133025000Y-77184250D01*
X133025000Y-74593690D01*
X132928327Y-74360301D01*
X132749698Y-74181673D01*
X132516309Y-74085000D01*
X129925750Y-74085000D01*
X129767000Y-74243750D01*
X129513000Y-74243750D01*
X129354250Y-74085000D01*
X126763691Y-74085000D01*
X126530302Y-74181673D01*
X126351673Y-74360301D01*
X126255000Y-74593690D01*
X115546492Y-74593690D01*
X114981122Y-74028320D01*
X114981162Y-73982833D01*
X114839117Y-73639057D01*
X114576327Y-73375808D01*
X114232799Y-73233162D01*
X113860833Y-73232838D01*
X113517057Y-73374883D01*
X113253808Y-73637673D01*
X113111162Y-73981201D01*
X113110838Y-74353167D01*
X107321193Y-74353167D01*
X107149698Y-74181673D01*
X106916309Y-74085000D01*
X104325750Y-74085000D01*
X104167000Y-74243750D01*
X103913000Y-74243750D01*
X103754250Y-74085000D01*
X101163691Y-74085000D01*
X100930302Y-74181673D01*
X100751673Y-74360301D01*
X100655000Y-74593690D01*
X98500000Y-74593690D01*
X98500000Y-64210000D01*
X135180000Y-64210000D01*
X135180000Y-92000000D01*
X135180000Y-92000000D01*
G37*
X135180000Y-92000000D02*
X98500000Y-92000000D01*
X98500000Y-77755750D01*
X100655000Y-77755750D01*
X100655000Y-80346310D01*
X100751673Y-80579699D01*
X100930302Y-80758327D01*
X101163691Y-80855000D01*
X103754250Y-80855000D01*
X103913000Y-80696250D01*
X103913000Y-77597000D01*
X104167000Y-77597000D01*
X104167000Y-80696250D01*
X104325750Y-80855000D01*
X106916309Y-80855000D01*
X107149698Y-80758327D01*
X107328327Y-80579699D01*
X107425000Y-80346310D01*
X107425000Y-77755750D01*
X107266250Y-77597000D01*
X104167000Y-77597000D01*
X103913000Y-77597000D01*
X100813750Y-77597000D01*
X100655000Y-77755750D01*
X98500000Y-77755750D01*
X98500000Y-74593690D01*
X100655000Y-74593690D01*
X100655000Y-77184250D01*
X100813750Y-77343000D01*
X103913000Y-77343000D01*
X103913000Y-74243750D01*
X104167000Y-74243750D01*
X104167000Y-77343000D01*
X107266250Y-77343000D01*
X107425000Y-77184250D01*
X107425000Y-74593690D01*
X107328327Y-74360301D01*
X107321193Y-74353167D01*
X113110838Y-74353167D01*
X113252883Y-74696943D01*
X113515673Y-74960192D01*
X113859201Y-75102838D01*
X113906077Y-75102879D01*
X114206140Y-75402942D01*
X114192560Y-75470000D01*
X114192560Y-78742000D01*
X114046000Y-78742000D01*
X113755161Y-78799852D01*
X113508599Y-78964599D01*
X113343852Y-79211161D01*
X113286000Y-79502000D01*
X113343852Y-79792839D01*
X113508599Y-80039401D01*
X113755161Y-80204148D01*
X114046000Y-80262000D01*
X114300000Y-80262000D01*
X114590839Y-80204148D01*
X114748376Y-80098886D01*
X114840000Y-80117440D01*
X118840000Y-80117440D01*
X119075317Y-80073162D01*
X119291441Y-79934090D01*
X119436431Y-79721890D01*
X119487440Y-79470000D01*
X119487440Y-77755750D01*
X126255000Y-77755750D01*
X126255000Y-80346310D01*
X126351673Y-80579699D01*
X126530302Y-80758327D01*
X126763691Y-80855000D01*
X129354250Y-80855000D01*
X129513000Y-80696250D01*
X129513000Y-77597000D01*
X129767000Y-77597000D01*
X129767000Y-80696250D01*
X129925750Y-80855000D01*
X132516309Y-80855000D01*
X132749698Y-80758327D01*
X132928327Y-80579699D01*
X133025000Y-80346310D01*
X133025000Y-77755750D01*
X132866250Y-77597000D01*
X129767000Y-77597000D01*
X129513000Y-77597000D01*
X126413750Y-77597000D01*
X126255000Y-77755750D01*
X119487440Y-77755750D01*
X119487440Y-75470000D01*
X119443162Y-75234683D01*
X119304090Y-75018559D01*
X119091890Y-74873569D01*
X118840000Y-74822560D01*
X115775362Y-74822560D01*
X115546492Y-74593690D01*
X126255000Y-74593690D01*
X126255000Y-77184250D01*
X126413750Y-77343000D01*
X129513000Y-77343000D01*
X129513000Y-74243750D01*
X129767000Y-74243750D01*
X129767000Y-77343000D01*
X132866250Y-77343000D01*
X133025000Y-77184250D01*
X133025000Y-74593690D01*
X132928327Y-74360301D01*
X132749698Y-74181673D01*
X132516309Y-74085000D01*
X129925750Y-74085000D01*
X129767000Y-74243750D01*
X129513000Y-74243750D01*
X129354250Y-74085000D01*
X126763691Y-74085000D01*
X126530302Y-74181673D01*
X126351673Y-74360301D01*
X126255000Y-74593690D01*
X115546492Y-74593690D01*
X114981122Y-74028320D01*
X114981162Y-73982833D01*
X114839117Y-73639057D01*
X114576327Y-73375808D01*
X114232799Y-73233162D01*
X113860833Y-73232838D01*
X113517057Y-73374883D01*
X113253808Y-73637673D01*
X113111162Y-73981201D01*
X113110838Y-74353167D01*
X107321193Y-74353167D01*
X107149698Y-74181673D01*
X106916309Y-74085000D01*
X104325750Y-74085000D01*
X104167000Y-74243750D01*
X103913000Y-74243750D01*
X103754250Y-74085000D01*
X101163691Y-74085000D01*
X100930302Y-74181673D01*
X100751673Y-74360301D01*
X100655000Y-74593690D01*
X98500000Y-74593690D01*
X98500000Y-64210000D01*
X135180000Y-64210000D01*
X135180000Y-92000000D01*
M02*
